<svg width="496" height="84" viewBox="0 0 496 84" fill="none" xmlns="http://www.w3.org/2000/svg">
<path d="M401.906 15.7569C356.838 10.7637 311.727 6.039 266.364 4.49334C201.948 2.29848 136.37 1.77955 72.2785 12.8494C68.0237 13.5843 -5.7708 25.5168 3.21555 41.1431C8.3202 50.0196 24.6885 54.03 32.5503 56.5079C68.4575 67.825 106.176 72.7085 143.432 76.0732C221.587 83.1315 301.136 84.222 379.51 75.0429C406.286 71.9069 433.33 67.6724 459.551 60.3645C464.588 58.9608 493.671 52.8606 493.007 41.3208C492.546 33.3064 478.247 28.2809 473.588 26.4291C455.265 19.1456 435.573 15.3866 416.337 12.1232C389.606 7.58834 362.54 4.58666 335.447 3.38847C318.492 2.63867 298.982 2.67864 281.956 3.83206C243.103 6.46415 272.795 5.71785 235.176 9.5692" stroke="#FECD36" stroke-width="4" stroke-linecap="round"/>
</svg>
