<svg width="121" height="73" viewBox="0 0 121 73" fill="none" xmlns="http://www.w3.org/2000/svg">
<g clip-path="url(#clip0_1354_588)">
<path fill-rule="evenodd" clip-rule="evenodd" d="M76.1687 34.7833C76.2439 34.9031 76.3414 34.9255 76.4612 34.8503C76.7008 34.7001 77.0155 34.6696 77.308 34.7366C77.6979 34.826 78.2299 34.7427 78.6421 34.7346C79.0544 34.7265 79.4219 34.9133 79.759 34.7853C79.8788 34.7102 80.1489 34.8747 80.3662 34.8219C80.5611 34.8666 80.8536 34.9336 81.0708 34.8808C82.4273 34.7813 83.8366 34.899 85.1708 34.897C85.4856 34.8665 85.8003 34.8361 86.1151 34.8056C86.2126 34.8279 86.3547 34.6553 86.3994 34.4604C86.4217 34.3629 86.444 34.2654 86.3689 34.1456C86.4197 33.0287 86.4704 31.9119 86.3039 30.8478C86.2572 29.7086 86.3303 28.4942 86.4034 27.2799C86.5516 26.1853 86.4826 25.1436 86.5333 24.0267C86.5029 23.7119 86.4501 23.4946 86.2998 23.255C85.9769 22.8733 85.7738 22.4164 85.6682 21.9818C85.6906 21.8843 85.518 21.7422 85.518 21.7422C85.5626 21.5472 85.39 21.4051 85.2398 21.1654C85.0895 20.9258 85.0367 20.7085 85.0062 20.3938C85.0875 19.5917 84.9737 18.7449 85.2722 17.8899C85.392 17.8148 85.4144 17.7173 85.5119 17.7397C86.3282 17.3112 86.3505 17.2137 87.1608 17.7072C87.7009 18.0361 88.2634 18.2676 88.7813 18.6941C89.2991 19.1205 89.8921 19.6668 90.552 19.9206C91.34 20.5115 91.9553 20.9603 92.5482 21.5066C92.8934 21.7909 93.1412 22.0528 93.4864 22.3371C93.5616 22.4569 93.7565 22.5016 93.854 22.5239C94.1464 22.5909 94.2967 22.8306 94.4693 22.9727C94.9871 23.3991 95.5049 23.8256 96.0451 24.1546C96.5629 24.581 97.1254 24.8125 97.6433 25.2389C98.0108 25.4258 98.3337 25.8075 98.6038 25.972C99.4668 26.6827 100.33 27.3935 101.193 28.1042C101.711 28.5307 102.229 28.9571 102.769 29.2861C102.941 29.4282 103.189 29.6902 103.384 29.7349C104.097 30.206 104.69 30.7522 105.38 31.3208C105.553 31.463 105.628 31.5828 105.801 31.7249C106.761 32.458 107.624 33.1687 108.465 33.9769C108.81 34.2612 109.058 34.5232 109.403 34.8075C109.501 34.8298 109.673 34.972 109.748 35.0918C110.244 35.6157 110.784 35.9447 111.399 36.3934C112.015 36.8422 112.63 37.291 113.245 37.7398C113.613 37.9266 113.86 38.1886 113.988 38.5257C114.214 38.8851 114.364 39.1247 114.537 39.2669C115.077 39.5958 115.258 40.1502 115.558 40.6294C115.708 40.8691 115.761 41.0863 115.792 41.4011C115.875 41.9331 115.936 42.5627 116.139 43.0196C116.289 43.2592 116.222 43.5516 116.08 43.7242C115.818 43.972 115.751 44.2644 115.662 44.6543C115.639 44.7517 115.52 44.8269 115.422 44.8045C115.107 44.835 114.912 44.7903 114.598 44.8208C113.901 45.1741 113.355 45.7671 112.831 46.2626C112.689 46.4352 112.427 46.683 112.285 46.8556C111.357 47.7714 110.331 48.6649 109.403 49.5808C108.879 50.0763 108.333 50.6692 107.982 51.3069C107.795 51.6744 107.533 51.9222 107.271 52.1699C106.507 52.8157 105.864 53.3863 105.175 54.1519C105.033 54.3245 104.794 54.4748 104.749 54.6697C104.322 55.1875 103.918 55.6079 103.417 56.0059C102.556 56.6294 101.845 57.4924 101.081 58.1382C100.962 58.2133 100.917 58.4082 100.797 58.4834C100.491 58.9261 100.109 59.249 99.7046 59.6693C98.7015 60.4654 97.6983 61.2614 96.748 62.2747C96.486 62.5225 96.2464 62.6727 96.1794 62.9651C96.0149 63.2352 95.8504 63.5053 95.6108 63.6556C95.3488 63.9033 94.9894 64.1287 94.7274 64.3765C94.4655 64.6242 94.2035 64.872 93.9192 65.2172C93.6349 65.5624 93.2532 65.8853 92.9689 66.2305C92.9465 66.328 92.8491 66.3057 92.7292 66.3808C92.1525 66.659 91.5677 66.525 91.0499 66.0985C90.9747 65.9787 90.8996 65.8589 90.8245 65.7391C90.7493 65.6193 90.6742 65.4995 90.599 65.3797L90.5016 65.3573C90.4041 65.335 90.3066 65.3127 90.2843 65.4101C90.2396 65.6051 90.1949 65.8 90.1503 65.995C90.0833 66.2874 90.1361 66.5047 90.1665 66.8194C90.0995 67.1119 89.9574 67.2845 89.7177 67.4347C89.4781 67.585 89.2832 67.5403 89.1106 67.3982C88.938 67.2561 88.8628 67.1362 88.6902 66.9941C88.2252 66.7849 88.0972 66.4478 87.8718 66.0884C87.819 65.8711 87.7662 65.6538 87.7134 65.4366C87.5469 64.3725 87.3804 63.3084 87.3113 62.2666C87.2504 61.6371 87.1895 61.0076 87.1062 60.4756C87.0758 60.1608 87.0676 59.7486 87.0372 59.4338C87.0209 58.6094 86.8849 57.86 86.9661 57.0579C87.025 56.3533 86.9864 55.6263 86.9478 54.8993C86.9762 53.8799 87.0046 52.8605 87.0331 51.8411C87.0777 51.6461 86.9051 51.504 86.7102 51.4593C86.2228 51.3476 85.8329 51.2583 85.3232 51.2441C85.2481 51.1243 85.2704 51.0268 85.1953 50.907C85.2928 50.9293 85.2928 50.9293 85.3679 51.0491C85.2704 51.0268 85.2704 51.0268 85.1953 50.907C85.1729 51.0044 85.0531 51.0796 85.0308 51.1771C85.1283 51.1994 85.2257 51.2217 85.3232 51.2441C85.2034 51.3192 85.0836 51.3943 84.9861 51.372C84.4988 51.2603 83.9891 51.2461 83.524 51.0369C83.4265 51.0146 83.3291 50.9923 83.2093 51.0674C83.3067 51.0897 83.4042 51.1121 83.524 51.0369C83.2844 51.1872 83.0671 51.24 82.797 51.0755C82.4295 50.8887 82.0396 50.7994 81.6274 50.8075C81.4101 50.8603 81.1176 50.7933 80.9227 50.7486C80.3379 50.6146 79.8282 50.6004 79.2961 50.6836C79.0788 50.7364 78.8839 50.6918 78.5691 50.7222C77.8645 50.6633 77.1375 50.7019 76.4105 50.7405C75.6835 50.7791 74.9789 50.7202 74.2742 50.6613C73.9595 50.6918 73.667 50.6248 73.3746 50.5578C73.0822 50.4908 72.7451 50.6187 72.5055 50.769C72.146 50.9944 71.8313 51.0248 71.4191 51.033C70.8119 50.9964 70.0849 51.035 69.4777 50.9984C68.968 50.9842 68.3608 50.9477 67.8288 51.031C67.514 51.0614 67.2216 50.9944 66.9515 50.8299C66.4865 50.6208 65.9768 50.6065 65.4671 50.5923C64.8376 50.6533 64.2081 50.7142 63.5786 50.7751C62.7094 50.9863 61.885 51.0026 60.963 50.9965C60.2584 50.9376 59.5537 50.8787 58.8044 51.0148C58.7069 50.9924 58.5871 51.0676 58.4896 51.0452C57.7099 50.8665 56.9605 51.0026 56.2335 51.0412C55.1918 51.1102 54.1501 51.1793 53.153 51.0534C51.894 51.1752 50.5598 51.1773 49.2256 51.1793C48.4763 51.3154 47.6742 51.2342 46.9249 51.3702C46.1755 51.5063 45.4485 51.5449 44.6017 51.6586C43.8748 51.6972 43.1031 51.9307 42.301 51.8495C41.4318 52.0607 40.5099 52.0546 39.5433 52.2435C39.5433 52.2435 39.4458 52.2211 39.4235 52.3186C38.7188 52.2597 38.1645 52.4404 37.5877 52.7187C37.4679 52.7938 37.273 52.7491 37.1755 52.7268C36.6658 52.7126 36.2312 52.8182 35.6992 52.9014C35.1448 53.0822 34.5904 53.2629 34.0584 53.3462C33.5264 53.4294 32.8968 53.4903 32.3567 53.1614C31.8693 53.0497 31.4794 52.9603 30.9697 52.9461C30.4824 52.8344 29.9726 52.8202 29.53 52.5136C28.9898 52.1846 28.4577 52.2679 27.8506 52.2313C27.4383 52.2395 26.9063 52.3227 26.5997 52.7654C26.5773 52.8629 26.36 52.9157 26.2626 52.8934C25.8727 52.804 25.4604 52.8121 25.1152 52.5278C25.0401 52.408 24.8451 52.3634 24.77 52.2436C24.4999 52.0791 24.372 51.742 24.3415 51.4272C24.3557 50.9175 24.175 50.3631 24.4065 49.8006C24.5852 49.0208 24.5466 48.2939 24.4105 47.5445C24.4024 47.1323 24.177 46.7729 24.2664 46.383C24.3699 45.4834 24.2785 44.5391 24.3821 43.6395L24.4044 43.542C24.6583 42.8821 24.6197 42.1551 24.5811 41.4281C24.5283 41.2108 24.6704 41.0382 24.7151 40.8432C24.9243 40.3782 25.036 39.8909 25.1476 39.4035C25.3487 38.5262 25.5497 37.649 25.7284 36.8692C25.7507 36.7717 25.7731 36.6742 25.7731 36.6742C26.1163 35.6244 26.5508 35.5188 27.5256 35.7421C27.818 35.8091 27.9906 35.9513 28.283 36.0183C28.4028 35.9432 28.5003 35.9655 28.6201 35.8904C28.8597 35.7401 29.077 35.6873 29.2719 35.732C29.7593 35.8436 30.269 35.8579 30.7036 35.7523C31.0407 35.6243 31.4306 35.7137 31.7981 35.9005C32.0906 35.9675 32.2855 36.0122 32.6226 35.8842C32.7424 35.8091 32.9373 35.8538 33.0348 35.8761C33.5445 35.8903 34.0319 36.002 34.4665 35.8964C34.901 35.7908 35.4859 35.9248 35.9204 35.8192C36.8952 36.0426 37.7866 35.7339 38.8061 35.7624C39.0985 35.8294 39.3158 35.7766 39.6082 35.8436C39.7056 35.8659 39.9006 35.9106 40.1179 35.8578C41.4744 35.7583 42.906 35.7786 44.3823 35.6039C45.1317 35.4679 46.0313 35.5714 46.7582 35.5328C47.2679 35.5471 47.8 35.4638 48.3097 35.478C48.7219 35.4699 49.254 35.3866 49.6662 35.3785C50.3708 35.4374 51.0227 35.279 51.7497 35.2404C52.0644 35.2099 52.2817 35.1571 52.5741 35.2241C53.3986 35.2079 54.2231 35.1916 54.9724 35.0556C55.5044 34.9723 56.0141 34.9865 56.5238 35.0007C57.4458 35.0068 58.39 34.9154 59.2145 34.8992C59.6267 34.8911 60.039 34.8829 60.4735 34.7773C60.6908 34.7245 60.8858 34.7692 60.9832 34.7915C61.2757 34.8586 61.5904 34.8281 61.9052 34.7976C62.557 34.6392 63.1865 34.5783 63.8465 34.8321C63.944 34.8545 64.1389 34.8992 64.2587 34.824C64.476 34.7712 64.671 34.8159 64.9857 34.7854C65.398 34.7773 65.7878 34.8667 66.2448 34.6636C66.5818 34.5356 66.9941 34.5275 67.384 34.6169C67.4814 34.6392 67.5789 34.6615 67.5789 34.6615C67.9688 34.7509 68.4034 34.6453 68.8156 34.6372C69.2055 34.7265 69.5954 34.8159 70.1051 34.8301C70.3975 34.8971 70.7346 34.7691 71.1022 34.956C71.1996 34.9783 71.3195 34.9032 71.4169 34.9255C71.754 34.7976 72.0688 34.7671 72.4059 34.6392C72.481 34.759 72.5785 34.7813 72.676 34.8037C73.0435 34.9905 73.0435 34.9905 73.3055 34.7427C73.3278 34.6453 73.4253 34.6676 73.4476 34.5701C73.7624 34.5397 74.0548 34.6067 74.3696 34.5762C74.6843 34.5457 74.9767 34.6128 75.2468 34.7772C75.6144 34.9641 75.9291 34.9336 76.1687 34.7833ZM100.003 34.1922C100.025 34.0948 100.025 34.0948 100.003 34.1922C99.9278 34.0724 99.9278 34.0724 99.9278 34.0724C100.025 34.0948 100.025 34.0948 100.003 34.1922ZM103.559 45.9845C103.709 46.2241 103.642 46.5165 103.597 46.7114C103.53 47.0039 103.703 47.146 103.778 47.2658C103.756 47.3633 103.658 47.341 103.636 47.4384C103.614 47.5359 103.614 47.5359 103.711 47.5582L103.733 47.4608C103.756 47.3633 103.756 47.3633 103.778 47.2658C103.606 47.1237 103.65 46.9287 103.695 46.7338C103.74 46.5388 103.687 46.3215 103.559 45.9845C103.581 45.887 103.701 45.8118 103.723 45.7144L103.746 45.6169C103.746 45.6169 103.768 45.5194 103.67 45.4971C103.573 45.4747 103.551 45.5722 103.528 45.6697C103.603 45.7895 103.581 45.887 103.559 45.9845ZM74.1686 40.3779C74.0711 40.3556 74.0934 40.2581 73.9959 40.2358L73.8985 40.2134C73.9513 40.4307 74.0711 40.3556 74.1686 40.3779C74.8955 40.3393 75.72 40.3231 76.4023 40.4794C76.6947 40.5464 77.0095 40.516 77.3019 40.583C77.6167 40.5525 77.9314 40.5221 78.2462 40.4916C78.8757 40.4307 79.5052 40.3697 80.1875 40.5261C80.5774 40.6154 80.9897 40.6073 81.4019 40.5992C82.1289 40.5606 82.931 40.6418 83.7331 40.7231C84.318 40.8571 84.85 40.7738 85.4572 40.8104C85.6745 40.7576 86.0116 40.6296 86.2288 40.5768C86.4461 40.524 86.4908 40.3291 86.3405 40.0895L86.2654 39.9697C85.6582 39.9331 85.0734 39.7991 84.5332 39.4701C84.3606 39.328 84.1433 39.3808 83.9484 39.3361C83.7534 39.2914 83.6336 39.3666 83.5361 39.3442C83.1239 39.3523 82.6893 39.4579 82.2548 39.5635C81.8202 39.6691 81.3552 39.46 80.9206 39.5656C80.8231 39.5432 80.8231 39.5432 80.7033 39.6184C80.2687 39.724 79.7814 39.6123 79.3692 39.6204C79.0767 39.5534 78.762 39.5839 78.4472 39.6143C77.6979 39.7504 76.8734 39.7666 76.1688 39.7078C75.5616 39.6712 75.0296 39.7545 74.6031 40.2723C74.5056 40.25 74.3858 40.3251 74.1686 40.3779ZM79.7043 48.0072C79.8017 48.0295 79.8992 48.0518 79.9967 48.0742C80.2891 48.1412 80.6039 48.1107 80.8658 47.863C81.008 47.6904 81.2253 47.6376 81.3451 47.5624C81.4649 47.4873 81.4649 47.4873 81.5623 47.5096C81.6598 47.532 81.7796 47.4568 81.8771 47.4792C81.9746 47.5015 82.0497 47.6213 82.0274 47.7188C82.0274 47.7188 82.005 47.8163 82.1025 47.8386C82.2528 48.0782 82.3726 48.0031 82.5899 47.9503C82.8518 47.7026 82.8518 47.7026 83.0245 47.8447C83.2722 48.1067 83.5646 48.1737 83.857 48.2407C84.052 48.2854 84.1718 48.2102 84.2165 48.0153C84.2611 47.8203 84.4033 47.6477 84.6206 47.5949C84.8379 47.5421 85.0328 47.5868 85.1303 47.6091C85.3252 47.6538 85.3029 47.7513 85.1607 47.9239C85.1384 48.0214 85.0409 47.999 85.1161 48.1188L85.2135 48.1412C85.6258 48.133 85.8877 47.8853 86.2472 47.6599C86.6066 47.4345 86.6959 47.0446 86.6878 46.6324C86.7325 46.4374 86.4624 46.2729 86.3649 46.2506C85.7801 46.1166 85.1729 46.08 84.5434 46.1409C84.0114 46.2242 83.5991 46.2323 83.1564 45.9257C83.059 45.9034 82.864 45.8587 82.7665 45.8363C82.137 45.8973 81.4324 45.8384 80.8252 45.8018C79.9033 45.7957 79.0037 45.6922 78.0594 45.7836C76.7699 45.5907 75.5109 45.7125 74.2742 45.7369C73.1573 45.6861 72.0181 45.7328 70.8261 45.5623C70.6311 45.5176 70.4138 45.5704 70.294 45.6455C69.9793 45.676 69.567 45.6841 69.297 45.5196C69.297 45.5196 69.2218 45.3998 69.2442 45.3024C69.2137 44.9876 69.2137 44.9876 69.0187 44.9429C68.9213 44.9206 68.8015 44.9957 68.7791 45.0932C68.7344 45.2881 68.6898 45.4831 68.4725 45.5359C68.375 45.5136 68.2552 45.5887 68.1577 45.5664L68.0603 45.544C68.0826 45.4465 68.0826 45.4465 68.1049 45.3491C68.1273 45.2516 68.2247 45.2739 68.2471 45.1765C68.2471 45.1765 68.2918 44.9815 68.1943 44.9592C67.7293 44.75 67.1525 45.0282 66.7626 44.9389C66.6652 44.9165 66.5454 44.9917 66.523 45.0892C66.4032 45.1643 66.5982 45.209 66.8154 45.1562C66.9129 45.1785 67.1302 45.1257 67.2277 45.148C67.3251 45.1704 67.4003 45.2902 67.4754 45.41C67.4754 45.41 67.4307 45.6049 67.3333 45.5826C67.2135 45.6577 67.0937 45.7329 66.8987 45.6882C66.584 45.7187 66.389 45.674 66.1189 45.5095C65.924 45.4648 65.6316 45.3978 65.4366 45.3532C64.5147 45.3471 63.5927 45.341 62.6485 45.4324C62.019 45.4933 61.4118 45.4567 60.8046 45.4202C60.4898 45.4507 60.0999 45.3613 59.7852 45.3918C59.6877 45.3694 59.4704 45.4222 59.3506 45.4974C59.3506 45.4974 59.2308 45.5725 59.2085 45.67C59.1861 45.7675 59.2836 45.7898 59.2836 45.7898C59.7486 45.9989 60.3335 46.133 60.8655 46.0497C61.0828 45.9969 61.3001 45.9441 61.5174 45.8913C61.7347 45.8385 61.9296 45.8832 62.222 45.9502C62.6871 46.1594 63.0769 46.2487 63.5115 46.1431C63.9237 46.135 64.2385 46.1045 64.6507 46.0964C65.063 46.0883 65.4529 46.1776 65.7757 46.5594C65.8509 46.6792 65.9483 46.7015 66.0682 46.6264C66.3606 46.6934 66.5779 46.6406 66.8926 46.6101C67.1099 46.5573 67.3049 46.602 67.6196 46.5716C68.0318 46.5634 68.4217 46.6528 68.7142 46.7198C70.0036 46.9127 71.285 46.6934 72.477 46.8639C72.5745 46.8863 72.5745 46.8863 72.6943 46.8111C73.0091 46.7807 73.4213 46.7726 73.7137 46.8396C74.0061 46.9066 74.2234 46.8538 74.5382 46.8233C74.9727 46.7177 75.3626 46.8071 75.7525 46.8964C75.9475 46.9411 76.045 46.9634 76.2399 47.0081C76.5323 47.0751 76.8247 47.1421 77.1618 47.0142C77.4766 46.9837 77.7913 46.9533 78.1061 46.9228C78.4209 46.8923 78.8108 46.9817 79.1255 46.9512C79.3428 46.8984 79.5154 47.0406 79.688 47.1827C79.554 47.7676 79.6291 47.8874 79.7043 48.0072ZM89.8657 26.9448C89.7317 27.5296 89.6951 28.1368 89.7561 28.7663C89.7114 28.9612 89.7642 29.1785 89.7195 29.3735C89.5936 30.3705 89.685 31.3148 89.6789 32.2368C89.7094 32.5515 89.6647 32.7465 89.5977 33.0389C89.4637 33.6237 89.5023 34.3507 89.6607 35.0026C89.6383 35.1 89.8333 35.1447 89.9308 35.167C90.0282 35.1894 90.0506 35.0919 90.0729 34.9944C90.1846 34.5071 90.2963 34.0197 90.3105 33.51C90.3389 32.4906 90.5623 31.5159 90.5907 30.4964C90.7471 29.8141 90.7085 29.0871 90.9623 28.4272C91.074 27.9398 91.1105 27.3326 91.1247 26.8229C91.1694 26.628 91.0943 26.5082 90.8993 26.4635C90.7267 26.3213 90.5318 26.2767 90.3368 26.232C90.2394 26.2097 90.0221 26.2625 89.9997 26.3599C89.9551 26.5549 89.9104 26.7498 89.8657 26.9448ZM94.7272 29.9055C94.6379 30.2954 94.6683 30.6101 94.579 31C94.5424 31.6072 94.3861 32.2895 94.447 32.919C94.4775 33.2338 94.4105 33.5262 94.3434 33.8186C94.2318 34.306 94.315 34.838 94.2257 35.2279C94.181 35.4229 94.3536 35.565 94.5486 35.6097C94.7435 35.6544 94.9831 35.5041 95.0278 35.3092C95.0948 35.0167 95.1618 34.7243 95.2288 34.4319C95.2207 34.0197 95.31 33.6298 95.3771 33.3374C95.5558 32.5576 95.637 31.7554 95.7182 30.9533C95.7852 30.6609 95.7324 30.4436 95.702 30.1289C95.6715 29.8141 95.4014 29.6496 94.9892 29.6577C94.847 29.8304 94.7272 29.9055 94.7272 29.9055ZM54.7186 45.5644C54.7186 45.5644 54.5237 45.5197 54.3287 45.4751C53.287 45.5441 52.2452 45.6132 51.301 45.7046C51.2035 45.6822 51.0837 45.7574 50.9639 45.8325C50.9639 45.8325 50.9415 45.93 50.9192 46.0274C50.9192 46.0274 50.8969 46.1249 50.9943 46.1472C51.3619 46.3341 51.632 46.4985 52.0442 46.4904C52.9661 46.4965 53.9104 46.4051 54.9075 46.531C55.0049 46.5534 55.1248 46.4782 55.2222 46.5006C56.069 46.3868 56.9382 46.1756 57.8378 46.2792C57.9352 46.3015 58.055 46.2264 58.1749 46.1513C58.2947 46.0761 58.3393 45.8812 58.2419 45.8588C58.1444 45.8365 58.1667 45.739 58.0693 45.7167C57.6794 45.6273 57.2895 45.538 56.8549 45.6436C56.1056 45.7797 55.4984 45.7431 54.7186 45.5644ZM31.2438 45.9301C30.7788 45.7209 30.3138 45.5118 29.8487 45.3026C29.6538 45.2579 29.4812 45.1158 29.2639 45.1686C28.7318 45.2519 28.2445 45.1402 27.6596 45.0061C27.4647 44.9615 27.2251 45.1117 27.2779 45.329C27.2109 45.6214 27.2413 45.9362 27.1743 46.2286C27.152 46.3261 27.2048 46.5434 27.2799 46.6632C27.2576 46.7607 27.355 46.783 27.4525 46.8053C27.9622 46.8196 28.4943 46.7363 29.0486 46.5556C29.5279 46.255 30.0376 46.2692 30.5696 46.186C30.7646 46.2306 30.8844 46.1555 31.124 46.0052C31.1991 46.125 31.2215 46.0276 31.2438 45.9301ZM108.709 41.4194C108.597 41.9068 108.53 42.1992 108.56 42.514C108.516 42.7089 108.591 42.8287 108.644 43.046C108.696 43.2633 108.989 43.3303 109.131 43.1577C109.513 42.8348 109.917 42.4145 110.299 42.0916C110.418 42.0164 110.366 41.7992 110.291 41.6793C109.945 41.395 109.6 41.1108 109.135 40.9016C109.038 40.8793 108.918 40.9544 108.895 41.0519C108.753 41.2245 108.686 41.5169 108.709 41.4194ZM104.247 40.2944C104.345 40.3168 104.345 40.3168 104.247 40.2944C104.412 40.0244 104.434 39.9269 104.479 39.7319C104.71 39.1694 104.769 38.4648 104.903 37.8799C104.97 37.5875 104.842 37.2504 104.692 37.0108C104.617 36.891 104.324 36.824 104.302 36.9215C104.182 36.9966 104.137 37.1916 104.115 37.289C104.093 37.3865 104.07 37.484 104.07 37.484C104.184 38.3308 104.2 39.1552 104.119 39.9574C104.097 40.0548 104.172 40.1746 104.15 40.2721C104.15 40.2721 104.247 40.2944 104.247 40.2944ZM72.1135 39.4966L72.1358 39.3991L72.0607 39.2793C71.7459 39.3098 71.356 39.2204 71.0413 39.2509C70.3143 39.2895 69.5873 39.3281 68.8827 39.2692C68.4704 39.2773 68.1557 39.3078 67.7434 39.3159C67.646 39.2936 67.6236 39.391 67.6013 39.4885C67.579 39.586 67.6764 39.6083 67.7739 39.6306C68.8908 39.6814 69.8878 39.8073 70.9296 39.7382C71.1245 39.7829 71.3418 39.7301 71.4616 39.655C71.7764 39.6245 71.8962 39.5494 72.1135 39.4966ZM60.1507 39.32C60.5629 39.3119 60.9528 39.4012 61.365 39.3931C61.4625 39.4154 61.56 39.4378 61.5823 39.3403C61.6798 39.3626 61.7021 39.2652 61.7245 39.1677L61.6493 39.0479C61.162 38.9362 59.9253 38.9606 59.3709 39.1413L59.3486 39.2388L59.4237 39.3586C59.6186 39.4033 59.8359 39.3505 60.1507 39.32ZM28.0251 38.9344C28.0028 39.0318 28.0028 39.0318 27.9804 39.1293C27.9581 39.2268 28.1307 39.3689 28.2282 39.3913C28.4231 39.436 28.6404 39.3832 28.7826 39.2105C28.9024 39.1354 28.8272 39.0156 28.677 38.776C28.6018 38.6562 28.5044 38.6338 28.4292 38.514C28.3541 38.3942 28.1368 38.447 27.9947 38.6196C28.0475 38.8369 28.0475 38.8369 28.0251 38.9344ZM59.4623 45.01C59.44 45.1075 59.44 45.1075 59.4623 45.01C59.8522 45.0994 60.167 45.0689 60.4817 45.0384L60.6015 44.9633C60.6239 44.8658 60.6239 44.8658 60.5487 44.746C60.4736 44.6262 60.2786 44.5815 60.1588 44.6567C59.8217 44.7846 59.6045 44.8374 59.4623 45.01ZM89.9817 58.6723C89.8842 58.65 89.7867 58.6276 89.7644 58.7251C89.5248 58.8754 89.608 59.4074 89.7806 59.5496L89.8781 59.5719C90.0954 59.5191 90.3574 59.2714 90.3046 59.0541C90.3269 58.9566 90.2294 58.9343 90.2518 58.8368C90.1766 58.717 90.0791 58.6946 89.9817 58.6723ZM58.6439 39.1799L58.5688 39.0601C58.3738 39.0154 58.1789 38.9707 57.9393 39.121C57.9393 39.121 57.9169 39.2185 57.8946 39.3159L57.992 39.3383C58.1647 39.4804 58.3819 39.4276 58.6439 39.1799C58.6216 39.2774 58.6216 39.2774 58.6439 39.1799ZM103.965 41.9738C104.129 41.7037 104.152 41.6063 104.174 41.5088C104.196 41.4113 104.121 41.2915 104.144 41.194L104.046 41.1717C103.926 41.2468 103.904 41.3443 103.882 41.4418C103.957 41.5616 104.01 41.7789 103.965 41.9738Z" fill="#191919"/>
</g>
<defs>
<clipPath id="clip0_1354_588">
<rect width="48.3" height="112.5" fill="white" transform="translate(120.445 25.1292) rotate(102.907)"/>
</clipPath>
</defs>
</svg>
