<svg width="85" height="25" viewBox="0 0 85 25" fill="none" xmlns="http://www.w3.org/2000/svg">
<g clip-path="url(#clip0_1354_597)">
<path d="M61.5 10.8799C68.8333 10.8799 76.1667 10.9699 83.5 11.1499C83.8978 11.1499 84.2794 11.308 84.5607 11.5893C84.842 11.8706 85 12.2521 85 12.6499C85 13.0478 84.842 13.4293 84.5607 13.7106C84.2794 13.9919 83.8978 14.1499 83.5 14.1499C57.76 13.5199 31.67 13.9999 5.95 15.5699C5.55217 15.5938 5.16116 15.4587 4.86298 15.1942C4.56479 14.9298 4.38387 14.5578 4.36 14.1599C4.33613 13.7621 4.47128 13.3711 4.7357 13.0729C5.00013 12.7747 5.37217 12.5938 5.77 12.5699C24.22 11.4499 42.9 10.8799 61.5 10.8799Z" fill="black"/>
<path d="M18.4286 4.91998C18.7812 4.92039 19.1224 5.04502 19.3923 5.27197C19.6622 5.49893 19.8435 5.81371 19.9043 6.16104C19.9652 6.50836 19.9018 6.86603 19.7252 7.17124C19.5486 7.47644 19.2701 7.70967 18.9386 7.82998C14.2215 9.55502 9.60136 11.5346 5.09861 13.76C10.6244 16.0725 15.9926 18.7449 21.1686 21.76C21.3387 21.8598 21.4874 21.9921 21.6063 22.1494C21.7253 22.3067 21.812 22.4859 21.8617 22.6767C21.9114 22.8675 21.923 23.0662 21.8959 23.2615C21.8688 23.4569 21.8034 23.6449 21.7036 23.815C21.6038 23.985 21.4715 24.1338 21.3142 24.2527C21.1569 24.3716 20.9777 24.4584 20.7869 24.5081C20.5961 24.5578 20.3974 24.5694 20.202 24.5422C20.0067 24.5151 19.8187 24.4498 19.6486 24.35C13.6609 20.8331 7.40871 17.7872 0.948611 15.24C0.67944 15.1358 0.446047 14.9562 0.276424 14.7226C0.1068 14.4891 0.00815506 14.2116 -0.00767992 13.9234C-0.0235149 13.6352 0.0441345 13.3486 0.187152 13.0979C0.330169 12.8471 0.542481 12.643 0.798617 12.51C6.32924 9.61881 12.0451 7.09664 17.9086 4.95998C18.0783 4.91618 18.2543 4.90264 18.4286 4.91998Z" fill="black"/>
</g>
<defs>
<clipPath id="clip0_1354_597">
<rect width="85" height="24.6" fill="white" transform="translate(85 24.6) rotate(180)"/>
</clipPath>
</defs>
</svg>
