<svg width="85" height="25" viewBox="0 0 85 25" fill="none" xmlns="http://www.w3.org/2000/svg">
<g clip-path="url(#clip0_1354_592)">
<path d="M23.5 13.72C16.1667 13.72 8.83333 13.63 1.5 13.45C1.10218 13.45 0.720644 13.292 0.43934 13.0107C0.158035 12.7294 0 12.3479 0 11.95C0 11.5522 0.158035 11.1707 0.43934 10.8894C0.720644 10.6081 1.10218 10.45 1.5 10.45C27.24 11.08 53.33 10.6 79.05 9.03004C79.4478 9.00617 79.8388 9.14132 80.137 9.40575C80.4352 9.67017 80.6161 10.0422 80.64 10.44C80.6639 10.8379 80.5287 11.2289 80.2643 11.5271C79.9999 11.8252 79.6278 12.0062 79.23 12.03C60.78 13.15 42.1 13.72 23.5 13.72Z" fill="black"/>
<path d="M66.5714 19.68C66.2188 19.6796 65.8776 19.555 65.6077 19.328C65.3378 19.101 65.1565 18.7863 65.0957 18.4389C65.0348 18.0916 65.0982 17.7339 65.2748 17.4287C65.4514 17.1235 65.7299 16.8903 66.0614 16.77C70.7785 15.045 75.3986 13.0654 79.9014 10.84C74.3756 8.52752 69.0074 5.85512 63.8314 2.84C63.6613 2.74019 63.5126 2.60787 63.3937 2.45058C63.2747 2.2933 63.188 2.11412 63.1383 1.9233C63.0886 1.73248 63.077 1.53374 63.1041 1.33843C63.1312 1.14312 63.1966 0.95506 63.2964 0.784998C63.3962 0.614937 63.5285 0.466196 63.6858 0.347273C63.8431 0.22835 64.0223 0.141574 64.2131 0.0918947C64.4039 0.0422154 64.6026 0.0306065 64.798 0.0577341C64.9933 0.0848617 65.1813 0.150194 65.3514 0.249999C71.3391 3.7669 77.5913 6.81275 84.0514 9.36C84.3206 9.46418 84.554 9.64382 84.7236 9.87735C84.8932 10.1109 84.9918 10.3884 85.0077 10.6766C85.0235 10.9648 84.9559 11.2514 84.8128 11.5021C84.6698 11.7528 84.4575 11.957 84.2014 12.09C78.6708 14.9812 72.9549 17.5033 67.0914 19.64C66.9217 19.6838 66.7457 19.6973 66.5714 19.68Z" fill="black"/>
</g>
<defs>
<clipPath id="clip0_1354_592">
<rect width="85" height="24.6" fill="white"/>
</clipPath>
</defs>
</svg>
